<svg width="18" height="18" viewBox="0 0 16 16" fill="none" xmlns="http://www.w3.org/2000/svg">
<path d="M5.66668 9.7777C5.66668 10.6368 6.36312 11.3333 7.22223 11.3333H8.66668C9.58715 11.3333 10.3333 10.5871 10.3333 9.66659C10.3333 8.74611 9.58715 7.99992 8.66668 7.99992H7.33334C6.41287 7.99992 5.66668 7.25373 5.66668 6.33325C5.66668 5.41278 6.41287 4.66659 7.33334 4.66659H8.77779C9.6369 4.66659 10.3333 5.36303 10.3333 6.22214M8.00001 3.66659V4.66659M8.00001 11.3333V12.3333M14.6667 7.99992C14.6667 11.6818 11.6819 14.6666 8.00001 14.6666C4.31811 14.6666 1.33334 11.6818 1.33334 7.99992C1.33334 4.31802 4.31811 1.33325 8.00001 1.33325C11.6819 1.33325 14.6667 4.31802 14.6667 7.99992Z" stroke="black" stroke-width="1.5" stroke-linecap="round" stroke-linejoin="round"/>
</svg>
