<svg width="14" height="14" viewBox="0 0 14 14" fill="none" xmlns="http://www.w3.org/2000/svg">
<path d="M4.95835 8.35251C4.95835 9.10423 5.56774 9.71362 6.31946 9.71362H7.58335C8.38877 9.71362 9.04169 9.06071 9.04169 8.25529C9.04169 7.44988 8.38877 6.79696 7.58335 6.79696H6.41669C5.61127 6.79696 4.95835 6.14404 4.95835 5.33862C4.95835 4.53321 5.61127 3.88029 6.41669 3.88029H7.68058C8.4323 3.88029 9.04169 4.48968 9.04169 5.2414M7.00002 3.00529V3.88029M7.00002 9.71362V10.5886M12.8334 6.79696C12.8334 10.0186 10.2217 12.6303 7.00002 12.6303C3.77836 12.6303 1.16669 10.0186 1.16669 6.79696C1.16669 3.5753 3.77836 0.963623 7.00002 0.963623C10.2217 0.963623 12.8334 3.5753 12.8334 6.79696Z" stroke="#475467" stroke-width="1.5" stroke-linecap="round" stroke-linejoin="round"/>
</svg>
