<svg width="20" height="16" viewBox="0 0 20 16" fill="none" xmlns="http://www.w3.org/2000/svg">
<path d="M1.6665 3.83325L8.4706 8.59612C9.02158 8.9818 9.29707 9.17465 9.59672 9.24934C9.86142 9.31532 10.1383 9.31532 10.403 9.24934C10.7026 9.17465 10.9781 8.9818 11.5291 8.59612L18.3332 3.83325M5.6665 14.6666H14.3332C15.7333 14.6666 16.4334 14.6666 16.9681 14.3941C17.4386 14.1544 17.821 13.772 18.0607 13.3016C18.3332 12.7668 18.3332 12.0667 18.3332 10.6666V5.33325C18.3332 3.93312 18.3332 3.23306 18.0607 2.69828C17.821 2.22787 17.4386 1.84542 16.9681 1.60574C16.4334 1.33325 15.7333 1.33325 14.3332 1.33325H5.6665C4.26637 1.33325 3.56631 1.33325 3.03153 1.60574C2.56112 1.84542 2.17867 2.22787 1.93899 2.69828C1.6665 3.23306 1.6665 3.93312 1.6665 5.33325V10.6666C1.6665 12.0667 1.6665 12.7668 1.93899 13.3016C2.17867 13.772 2.56112 14.1544 3.03153 14.3941C3.56631 14.6666 4.26637 14.6666 5.6665 14.6666Z" stroke="#667085" stroke-width="1.66667" stroke-linecap="round" stroke-linejoin="round"/>
</svg>
