<svg width="16" height="16" viewBox="0 0 16 16" fill="none" xmlns="http://www.w3.org/2000/svg">
<path d="M10 1.63845C9.36865 1.44015 8.69681 1.33325 8.00001 1.33325C4.31811 1.33325 1.33334 4.31802 1.33334 7.99992C1.33334 11.6818 4.31811 14.6666 8.00001 14.6666C11.6819 14.6666 14.6667 11.6818 14.6667 7.99992C14.6667 6.85637 14.3788 5.78007 13.8714 4.83955M11.3333 3.83325H11.3367M7.00005 14.5921L7.00012 13.1232C7.00012 13.0436 7.02858 12.9667 7.08036 12.9063L8.73755 10.9729C8.87374 10.814 8.83154 10.5703 8.64985 10.4665L6.7457 9.37841C6.69396 9.34885 6.6511 9.30596 6.62157 9.2542L5.38032 7.079C5.31572 6.9658 5.19106 6.90063 5.06123 6.91219L1.37613 7.24041M14 3.99992C14 5.47268 12.6667 6.66659 11.3333 7.99992C10 6.66659 8.66668 5.47268 8.66668 3.99992C8.66668 2.52716 9.86058 1.33325 11.3333 1.33325C12.8061 1.33325 14 2.52716 14 3.99992ZM11.5 3.83325C11.5 3.9253 11.4254 3.99992 11.3333 3.99992C11.2413 3.99992 11.1667 3.9253 11.1667 3.83325C11.1667 3.7412 11.2413 3.66659 11.3333 3.66659C11.4254 3.66659 11.5 3.7412 11.5 3.83325Z" stroke="black" stroke-width="1.5" stroke-linecap="round" stroke-linejoin="round"/>
</svg>
