<svg width="16" height="14" viewBox="0 0 16 14" fill="none" xmlns="http://www.w3.org/2000/svg">
<path d="M2.2571 2.77791C1.75287 2.21437 1.50076 1.93259 1.49125 1.69312C1.48299 1.48509 1.57238 1.28515 1.73292 1.15259C1.91773 1 2.29583 1 3.05202 1H12.9473C13.7035 1 14.0816 1 14.2664 1.15259C14.427 1.28515 14.5163 1.48509 14.5081 1.69312C14.4986 1.93259 14.2465 2.21437 13.7422 2.77791L9.93808 7.02962C9.83756 7.14196 9.78731 7.19813 9.75147 7.26205C9.71969 7.31875 9.69637 7.37978 9.68225 7.44323C9.66633 7.51476 9.66633 7.59013 9.66633 7.74087V11.3056C9.66633 11.436 9.66633 11.5011 9.64531 11.5575C9.62673 11.6073 9.59651 11.6519 9.55717 11.6877C9.51265 11.7281 9.45213 11.7524 9.33108 11.8008L7.06441 12.7074C6.81938 12.8054 6.69687 12.8545 6.59852 12.834C6.51251 12.8161 6.43704 12.765 6.3885 12.6918C6.333 12.6081 6.333 12.4762 6.333 12.2122V7.74087C6.333 7.59013 6.333 7.51476 6.31708 7.44323C6.30296 7.37978 6.27964 7.31875 6.24786 7.26205C6.21203 7.19813 6.16177 7.14196 6.06126 7.02962L2.2571 2.77791Z" stroke="black" stroke-width="1.5" stroke-linecap="round" stroke-linejoin="round"/>
</svg>
