<svg width="14" height="13" viewBox="0 0 14 13" fill="none" xmlns="http://www.w3.org/2000/svg">
<path d="M6.58157 1.81129C6.71602 1.53891 6.78324 1.40272 6.8745 1.3592C6.95391 1.32135 7.04615 1.32135 7.12556 1.3592C7.21682 1.40272 7.28404 1.53891 7.41849 1.81129L8.69406 4.39544C8.73375 4.47585 8.75359 4.51606 8.7826 4.54727C8.80828 4.57491 8.83908 4.59731 8.87329 4.61322C8.91193 4.63118 8.95629 4.63767 9.04503 4.65064L11.8983 5.06768C12.1987 5.1116 12.349 5.13356 12.4185 5.20694C12.479 5.27079 12.5074 5.35853 12.4959 5.44572C12.4827 5.54594 12.3739 5.65188 12.1564 5.86374L10.0925 7.87393C10.0282 7.9366 9.99603 7.96793 9.97527 8.00521C9.95689 8.03821 9.9451 8.07448 9.94055 8.11198C9.93542 8.15434 9.94301 8.1986 9.95819 8.28712L10.4452 11.1264C10.4965 11.4259 10.5222 11.5756 10.4739 11.6645C10.432 11.7418 10.3573 11.796 10.2708 11.812C10.1714 11.8305 10.0369 11.7598 9.768 11.6183L7.21724 10.2769C7.13776 10.2351 7.09803 10.2142 7.05616 10.206C7.01909 10.1987 6.98097 10.1987 6.9439 10.206C6.90203 10.2142 6.8623 10.2351 6.78282 10.2769L4.23206 11.6183C3.96314 11.7598 3.82868 11.8305 3.72925 11.812C3.64275 11.796 3.56811 11.7418 3.52612 11.6645C3.47785 11.5756 3.50354 11.4259 3.5549 11.1264L4.04187 8.28712C4.05705 8.1986 4.06464 8.15434 4.05951 8.11198C4.05496 8.07448 4.04317 8.03821 4.02479 8.00521C4.00403 7.96793 3.97187 7.93659 3.90753 7.87393L1.84368 5.86374C1.62616 5.65188 1.5174 5.54594 1.50416 5.44572C1.49265 5.35853 1.52109 5.27079 1.58158 5.20694C1.65111 5.13356 1.80134 5.1116 2.1018 5.06768L4.95504 4.65064C5.04377 4.63767 5.08813 4.63118 5.12677 4.61322C5.16098 4.59731 5.19178 4.57491 5.21746 4.54727C5.24647 4.51606 5.26631 4.47585 5.30601 4.39544L6.58157 1.81129Z" fill="#FEC84B" stroke="#FEC84B" stroke-width="1.5" stroke-linecap="round" stroke-linejoin="round"/>
</svg>
