<svg width="12" height="13" viewBox="0 0 12 13" fill="none" xmlns="http://www.w3.org/2000/svg">
<path d="M4.25 6.79687H1.68333C1.35664 6.79687 1.19329 6.79687 1.06851 6.86045C0.958744 6.91638 0.869506 7.00562 0.81358 7.11538C0.75 7.24016 0.75 7.40351 0.75 7.73021V11.1135C0.75 11.4402 0.75 11.6036 0.81358 11.7284C0.869506 11.8381 0.958744 11.9274 1.06851 11.9833C1.19329 12.0469 1.35664 12.0469 1.68333 12.0469H4.25M4.25 12.0469H7.75M4.25 12.0469L4.25 4.81354C4.25 4.48684 4.25 4.3235 4.31358 4.19871C4.36951 4.08895 4.45874 3.99971 4.56851 3.94379C4.69329 3.88021 4.85664 3.88021 5.18333 3.88021H6.81667C7.14336 3.88021 7.30671 3.88021 7.43149 3.94379C7.54126 3.99971 7.63049 4.08895 7.68642 4.19871C7.75 4.3235 7.75 4.48684 7.75 4.81354V12.0469M7.75 12.0469H10.3167C10.6434 12.0469 10.8067 12.0469 10.9315 11.9833C11.0413 11.9274 11.1305 11.8381 11.1864 11.7284C11.25 11.6036 11.25 11.4402 11.25 11.1135V2.48021C11.25 2.15351 11.25 1.99016 11.1864 1.86538C11.1305 1.75562 11.0413 1.66638 10.9315 1.61045C10.8067 1.54688 10.6434 1.54688 10.3167 1.54688H8.68333C8.35664 1.54688 8.19329 1.54688 8.06851 1.61045C7.95874 1.66638 7.86951 1.75562 7.81358 1.86538C7.75 1.99016 7.75 2.15351 7.75 2.48021V4.46354" stroke="#475467" stroke-width="1.5" stroke-linecap="round" stroke-linejoin="round"/>
</svg>
