<svg width="18" height="17" viewBox="0 0 18 17" fill="none" xmlns="http://www.w3.org/2000/svg">
<path d="M8.40217 1.67468C8.59424 1.28556 8.69028 1.09101 8.82065 1.02884C8.93408 0.97476 9.06587 0.97476 9.1793 1.02884C9.30967 1.09101 9.40571 1.28556 9.59778 1.67468L11.42 5.36632C11.4767 5.48119 11.5051 5.53863 11.5465 5.58323C11.5832 5.62271 11.6272 5.65471 11.6761 5.67743C11.7313 5.7031 11.7946 5.71237 11.9214 5.73089L15.9975 6.32667C16.4267 6.38941 16.6413 6.42078 16.7406 6.52561C16.827 6.61683 16.8677 6.74216 16.8512 6.86673C16.8323 7.0099 16.6769 7.16123 16.3662 7.4639L13.4178 10.3356C13.3259 10.4251 13.28 10.4699 13.2503 10.5231C13.2241 10.5703 13.2072 10.6221 13.2007 10.6757C13.1934 10.7362 13.2042 10.7994 13.2259 10.9259L13.9216 14.982C13.995 15.4098 14.0317 15.6237 13.9627 15.7507C13.9027 15.8611 13.7961 15.9386 13.6725 15.9615C13.5305 15.9878 13.3384 15.8868 12.9542 15.6848L9.31027 13.7684C9.19674 13.7087 9.13997 13.6789 9.08016 13.6672C9.02721 13.6568 8.97274 13.6568 8.91979 13.6672C8.85998 13.6789 8.80321 13.7087 8.68967 13.7684L5.04573 15.6848C4.66156 15.8868 4.46947 15.9878 4.32744 15.9615C4.20386 15.9386 4.09723 15.8611 4.03724 15.7507C3.96829 15.6237 4.00498 15.4098 4.07835 14.982L4.77403 10.9259C4.79572 10.7994 4.80656 10.7362 4.79923 10.6757C4.79273 10.6221 4.77589 10.5703 4.74963 10.5231C4.71998 10.4699 4.67402 10.4251 4.58211 10.3356L1.63376 7.4639C1.32301 7.16123 1.16764 7.0099 1.14873 6.86673C1.13228 6.74216 1.17292 6.61683 1.25933 6.52561C1.35866 6.42078 1.57327 6.38941 2.0025 6.32667L6.07855 5.73089C6.20531 5.71237 6.26869 5.7031 6.32389 5.67743C6.37276 5.65471 6.41676 5.62271 6.45345 5.58323C6.49488 5.53863 6.52323 5.48119 6.57994 5.36632L8.40217 1.67468Z" stroke="#475467" stroke-width="1.66667" stroke-linecap="round" stroke-linejoin="round"/>
</svg>
