<svg width="141" height="32" viewBox="0 0 141 32" fill="none" xmlns="http://www.w3.org/2000/svg">
<g clip-path="url(#clip0_562_98482)">
<g clip-path="url(#clip1_562_98482)">
<path d="M26.3627 17.235V31.9876C26.2671 31.9904 26.1724 31.9952 26.0768 31.9952C20.6298 31.9952 15.1819 31.9943 9.73493 32C9.49108 32 9.31991 31.9197 9.15064 31.7495C6.20148 28.7936 3.24944 25.8406 0.291665 22.8933C0.0898903 22.6935 0 22.4936 0 22.2058C0.00860652 17.6242 0.00573768 13.0417 0.00669396 8.45925C0.00669396 8.18098 0.00286884 7.90079 0.0277321 7.62442C0.349042 4.16938 2.89753 1.16475 6.25025 0.275409C6.74369 0.144398 7.24573 0.0726773 7.74874 0C8.24218 0 8.73466 0 9.2281 0C9.29026 0.0133879 9.35146 0.0315572 9.41362 0.0392075C11.3931 0.262021 13.0934 1.07868 14.4876 2.49302C15.8054 3.8299 17.1451 5.14383 18.4686 6.47402C20.2578 8.27182 22.0652 10.0524 23.8554 11.8502C24.9436 12.9433 25.6924 14.2381 26.0883 15.7346C26.2193 16.229 26.2642 16.7359 26.3618 17.2341L26.3627 17.235ZM8.48412 21.6224C10.8538 21.6224 13.2234 21.6224 15.5931 21.6224C15.8602 21.6224 15.9941 21.4914 15.9947 21.2294C15.9947 18.9783 16.0033 16.7273 15.9928 14.4762C15.9823 12.3293 16.0445 10.1815 15.9565 8.03467C15.8819 6.20913 15.202 4.62457 13.9617 3.30108C11.5519 0.730598 7.77456 0.14918 4.74315 1.92117C2.34576 3.32212 1.02704 5.4594 0.988794 8.246C0.929504 12.5722 0.971581 16.9003 0.970624 21.2275C0.970624 21.6205 0.973493 21.6224 1.37417 21.6224C3.74384 21.6224 6.1135 21.6224 8.48316 21.6224H8.48412Z" fill="#14FDA8"/>
</g>
<mask id="mask0_562_98482" style="mask-type:alpha" maskUnits="userSpaceOnUse" x="40" y="3" width="101" height="26">
<path d="M53.7603 27.7147C53.7603 27.8508 53.6633 27.9678 53.5293 27.9913C52.3417 28.1989 51.174 28.2868 50.0263 28.2549C48.8156 28.2323 47.7294 28.023 46.7676 27.627C45.8172 27.2196 45.093 26.569 44.5952 25.6751C44.1426 24.8378 43.905 23.9892 43.8823 23.1293C43.8597 22.258 43.8484 21.2736 43.8484 20.1761V4.81039C43.8484 4.65416 43.975 4.52751 44.1313 4.52751H48.182C48.3382 4.52751 48.4649 4.65416 48.4649 4.81039V19.9045C48.4649 20.6174 48.4705 21.2623 48.4818 21.8394C48.5045 22.4051 48.6233 22.8577 48.8383 23.1972C49.2456 23.8421 49.8962 24.1929 50.7901 24.2494C51.5951 24.3004 52.4781 24.2688 53.439 24.1545C53.6092 24.1343 53.7603 24.2661 53.7603 24.4374V27.7147ZM41.0083 13.1834C40.8521 13.1834 40.7255 13.0568 40.7255 12.9006V9.90211C40.7255 9.74588 40.8521 9.61924 41.0083 9.61924H53.4774C53.6336 9.61924 53.7603 9.74588 53.7603 9.90211V12.9006C53.7603 13.0568 53.6336 13.1834 53.4774 13.1834H41.0083Z" fill="white"/>
<path d="M63.3101 28.4925C61.8732 28.4925 60.7021 28.2493 59.7969 27.7627C58.8917 27.2762 58.1845 26.6595 57.6753 25.9127C57.1775 25.166 56.821 24.3909 56.6061 23.5875C56.3911 22.7729 56.2609 22.0317 56.2157 21.3641C56.1704 20.6966 56.1478 20.21 56.1478 19.9045V9.90211C56.1478 9.74588 56.2744 9.61924 56.4307 9.61924H60.5493C60.7055 9.61924 60.8322 9.74588 60.8322 9.90211V18.2752C60.8322 18.6938 60.8548 19.2313 60.9001 19.8875C60.9453 20.5325 61.0868 21.1831 61.3244 21.8394C61.562 22.4956 61.9467 23.0444 62.4785 23.4857C63.0216 23.927 63.7854 24.1476 64.7698 24.1476C65.1658 24.1476 65.5901 24.0854 66.0427 23.9609C66.4953 23.8365 66.9196 23.5988 67.3156 23.2481C67.7117 22.886 68.0341 22.3599 68.2831 21.6696C68.5081 21.063 68.6358 20.2956 68.6663 19.3674C68.6731 19.1598 68.8898 19.0228 69.0775 19.1118L71.1595 20.0994C71.2582 20.1462 71.3215 20.2458 71.3196 20.355C71.2963 21.7364 71.0026 23.0345 70.4386 24.2494C69.8502 25.5167 68.962 26.5407 67.7739 27.3215C66.5971 28.1022 65.1092 28.4925 63.3101 28.4925ZM69.5334 27.9494C69.3771 27.9494 69.2505 27.8228 69.2505 27.6666V22.1562C69.2505 22 69.1238 21.8733 68.9676 21.8733H68.9563C68.8001 21.8733 68.6734 21.7467 68.6734 21.5904V9.90211C68.6734 9.74588 68.8001 9.61924 68.9563 9.61924H73.041C73.1972 9.61924 73.3239 9.74588 73.3239 9.90211V27.6666C73.3239 27.8228 73.1972 27.9494 73.041 27.9494H69.5334Z" fill="white"/>
<path d="M89.4841 27.9494C89.3279 27.9494 89.2013 27.8228 89.2013 27.6666V19.2935C89.2013 18.8749 89.1786 18.3431 89.1334 17.6981C89.0881 17.0418 88.9467 16.3856 88.7091 15.7293C88.4715 15.073 88.0811 14.5243 87.538 14.083C87.0062 13.6417 86.2481 13.4211 85.2637 13.4211C84.8676 13.4211 84.4433 13.4833 83.9907 13.6078C83.5381 13.7322 83.1138 13.9755 82.7178 14.3376C82.3218 14.6883 81.9937 15.2088 81.7334 15.899C81.5178 16.4967 81.3956 17.2641 81.3667 18.2012C81.3603 18.4088 81.1436 18.5459 80.9559 18.4569L78.874 17.4693C78.7752 17.4224 78.712 17.3229 78.7138 17.2136C78.7371 15.8323 79.0308 14.5342 79.5949 13.3192C80.1833 12.0519 81.0658 11.0279 82.2426 10.2472C83.4307 9.46648 84.9242 9.07612 86.7233 9.07612C88.1603 9.07612 89.3314 9.31939 90.2366 9.80593C91.1418 10.2925 91.8433 10.9091 92.3412 11.6559C92.8503 12.4027 93.2124 13.1834 93.4274 13.9981C93.6424 14.8015 93.7725 15.5369 93.8178 16.2045C93.863 16.8721 93.8856 17.3587 93.8856 17.6642V27.6666C93.8856 27.8228 93.759 27.9494 93.6028 27.9494H89.4841ZM76.9585 27.9494C76.8023 27.9494 76.6756 27.8228 76.6756 27.6666V9.90211C76.6756 9.74588 76.8023 9.61924 76.9585 9.61924H80.5001C80.6563 9.61924 80.783 9.74588 80.783 9.90211V15.4125C80.783 15.5687 80.9096 15.6954 81.0658 15.6954H81.0771C81.2334 15.6954 81.36 15.822 81.36 15.9782V27.6666C81.36 27.8228 81.2334 27.9494 81.0771 27.9494H76.9585Z" fill="white"/>
<path d="M109.706 27.9494C109.55 27.9494 109.424 27.8228 109.424 27.6666V19.2935C109.424 18.8749 109.401 18.3431 109.356 17.6981C109.31 17.0418 109.169 16.3856 108.931 15.7293C108.694 15.073 108.303 14.5243 107.76 14.083C107.229 13.6417 106.47 13.4211 105.486 13.4211C105.09 13.4211 104.666 13.4833 104.213 13.6078C103.76 13.7322 103.336 13.9755 102.94 14.3376C102.544 14.6883 102.216 15.2088 101.956 15.899C101.74 16.4967 101.618 17.2641 101.589 18.2012C101.583 18.4088 101.366 18.5459 101.178 18.4569L99.0963 17.4693C98.9976 17.4224 98.9343 17.3229 98.9362 17.2136C98.9595 15.8323 99.2532 14.5342 99.8172 13.3192C100.406 12.0519 101.288 11.0279 102.465 10.2472C103.653 9.46648 105.147 9.07612 106.946 9.07612C108.383 9.07612 109.554 9.31939 110.459 9.80593C111.364 10.2925 112.066 10.9091 112.563 11.6559C113.073 12.4027 113.435 13.1834 113.65 13.9981C113.865 14.8015 113.995 15.5369 114.04 16.2045C114.085 16.8721 114.108 17.3587 114.108 17.6642V27.6666C114.108 27.8228 113.981 27.9494 113.825 27.9494H109.706ZM97.1809 27.9494C97.0246 27.9494 96.898 27.8228 96.898 27.6666V9.90211C96.898 9.74588 97.0246 9.61924 97.1809 9.61924H100.722C100.879 9.61924 101.005 9.74588 101.005 9.90211V15.4125C101.005 15.5687 101.132 15.6954 101.288 15.6954H101.299C101.456 15.6954 101.582 15.822 101.582 15.9782V27.6666C101.582 27.8228 101.456 27.9494 101.299 27.9494H97.1809Z" fill="white"/>
<path d="M125.674 28.4586C123.796 28.4586 122.138 28.0569 120.701 27.2536C119.276 26.4389 118.156 25.3244 117.341 23.91C116.538 22.4843 116.136 20.855 116.136 19.0219C116.136 17.0192 116.532 15.2767 117.324 13.7944C118.116 12.3122 119.208 11.1637 120.6 10.349C121.991 9.52306 123.592 9.11006 125.403 9.11006C127.326 9.11006 128.961 9.56266 130.308 10.4679C131.654 11.3731 132.65 12.646 133.295 14.2866C133.915 15.8632 134.148 17.7061 133.995 19.8155C133.984 19.9619 133.861 20.0742 133.715 20.0742H129.691C129.535 20.0742 129.408 19.9476 129.408 19.7914V18.377C129.408 16.51 129.108 15.1692 128.509 14.3545C127.92 13.5285 126.953 13.1156 125.607 13.1156C124.034 13.1156 122.874 13.5964 122.127 14.5582C121.392 15.5087 121.024 16.9174 121.024 18.7843C121.024 20.4929 121.392 21.8167 122.127 22.7559C122.874 23.6837 123.966 24.1476 125.403 24.1476C126.308 24.1476 127.083 23.9496 127.728 23.5536C128.308 23.1973 128.765 22.699 129.098 22.0588C129.163 21.9344 129.304 21.868 129.439 21.9066L133.517 23.076C133.679 23.1225 133.765 23.3 133.696 23.4537C133.002 24.989 131.952 26.1934 130.545 27.0669C129.063 27.9947 127.44 28.4586 125.674 28.4586ZM119.881 20.0742C119.725 20.0742 119.598 19.9476 119.598 19.7914V16.9287C119.598 16.7725 119.725 16.6458 119.881 16.6458H131.468C131.624 16.6458 131.751 16.7725 131.751 16.9287V19.7914C131.751 19.9476 131.624 20.0742 131.468 20.0742H119.881Z" fill="white"/>
<path d="M136.392 27.9494C136.236 27.9494 136.109 27.8228 136.109 27.6666V3.28287C136.109 3.12665 136.236 3 136.392 3H140.443C140.599 3 140.725 3.12665 140.725 3.28287V27.6666C140.725 27.8228 140.599 27.9494 140.443 27.9494H136.392Z" fill="white"/>
</mask>
<g mask="url(#mask0_562_98482)">
<path d="M53.7603 27.7147C53.7603 27.8508 53.6633 27.9678 53.5293 27.9913C52.3417 28.1989 51.174 28.2868 50.0263 28.2549C48.8156 28.2323 47.7294 28.023 46.7676 27.627C45.8172 27.2196 45.093 26.569 44.5952 25.6751C44.1426 24.8378 43.905 23.9892 43.8823 23.1293C43.8597 22.258 43.8484 21.2736 43.8484 20.1761V4.81039C43.8484 4.65416 43.975 4.52751 44.1313 4.52751H48.182C48.3382 4.52751 48.4649 4.65416 48.4649 4.81039V19.9045C48.4649 20.6174 48.4705 21.2623 48.4818 21.8394C48.5045 22.4051 48.6233 22.8577 48.8383 23.1972C49.2456 23.8421 49.8962 24.1929 50.7901 24.2494C51.5951 24.3004 52.4781 24.2688 53.439 24.1545C53.6092 24.1343 53.7603 24.2661 53.7603 24.4374V27.7147ZM41.0083 13.1834C40.8521 13.1834 40.7255 13.0568 40.7255 12.9006V9.90211C40.7255 9.74588 40.8521 9.61924 41.0083 9.61924H53.4774C53.6336 9.61924 53.7603 9.74588 53.7603 9.90211V12.9006C53.7603 13.0568 53.6336 13.1834 53.4774 13.1834H41.0083Z" fill="#030303"/>
<path d="M63.3101 28.4925C61.8732 28.4925 60.7021 28.2493 59.7969 27.7627C58.8917 27.2762 58.1845 26.6595 57.6753 25.9127C57.1775 25.166 56.821 24.3909 56.6061 23.5875C56.3911 22.7729 56.2609 22.0317 56.2157 21.3641C56.1704 20.6966 56.1478 20.21 56.1478 19.9045V9.90211C56.1478 9.74588 56.2744 9.61924 56.4307 9.61924H60.5493C60.7055 9.61924 60.8322 9.74588 60.8322 9.90211V18.2752C60.8322 18.6938 60.8548 19.2313 60.9001 19.8875C60.9453 20.5325 61.0868 21.1831 61.3244 21.8394C61.562 22.4956 61.9467 23.0444 62.4785 23.4857C63.0216 23.927 63.7854 24.1476 64.7698 24.1476C65.1658 24.1476 65.5901 24.0854 66.0427 23.9609C66.4953 23.8365 66.9196 23.5988 67.3156 23.2481C67.7117 22.886 68.0341 22.3599 68.2831 21.6696C68.5081 21.063 68.6358 20.2956 68.6663 19.3674C68.6731 19.1598 68.8898 19.0228 69.0775 19.1118L71.1595 20.0994C71.2582 20.1462 71.3215 20.2458 71.3196 20.355C71.2963 21.7364 71.0026 23.0345 70.4386 24.2494C69.8502 25.5167 68.962 26.5407 67.7739 27.3215C66.5971 28.1022 65.1092 28.4925 63.3101 28.4925ZM69.5334 27.9494C69.3771 27.9494 69.2505 27.8228 69.2505 27.6666V22.1562C69.2505 22 69.1238 21.8733 68.9676 21.8733H68.9563C68.8001 21.8733 68.6734 21.7467 68.6734 21.5904V9.90211C68.6734 9.74588 68.8001 9.61924 68.9563 9.61924H73.041C73.1972 9.61924 73.3239 9.74588 73.3239 9.90211V27.6666C73.3239 27.8228 73.1972 27.9494 73.041 27.9494H69.5334Z" fill="#030303"/>
<path d="M89.4841 27.9494C89.3279 27.9494 89.2013 27.8228 89.2013 27.6666V19.2935C89.2013 18.8749 89.1786 18.3431 89.1334 17.6981C89.0881 17.0418 88.9467 16.3856 88.7091 15.7293C88.4715 15.073 88.0811 14.5243 87.538 14.083C87.0062 13.6417 86.2481 13.4211 85.2637 13.4211C84.8676 13.4211 84.4433 13.4833 83.9907 13.6078C83.5381 13.7322 83.1138 13.9755 82.7178 14.3376C82.3218 14.6883 81.9937 15.2088 81.7334 15.899C81.5178 16.4967 81.3956 17.2641 81.3667 18.2012C81.3603 18.4088 81.1436 18.5459 80.9559 18.4569L78.874 17.4693C78.7752 17.4224 78.712 17.3229 78.7138 17.2136C78.7371 15.8323 79.0308 14.5342 79.5949 13.3192C80.1833 12.0519 81.0658 11.0279 82.2426 10.2472C83.4307 9.46648 84.9242 9.07612 86.7233 9.07612C88.1603 9.07612 89.3314 9.31939 90.2366 9.80593C91.1418 10.2925 91.8433 10.9091 92.3412 11.6559C92.8503 12.4027 93.2124 13.1834 93.4274 13.9981C93.6424 14.8015 93.7725 15.5369 93.8178 16.2045C93.863 16.8721 93.8856 17.3587 93.8856 17.6642V27.6666C93.8856 27.8228 93.759 27.9494 93.6028 27.9494H89.4841ZM76.9585 27.9494C76.8023 27.9494 76.6756 27.8228 76.6756 27.6666V9.90211C76.6756 9.74588 76.8023 9.61924 76.9585 9.61924H80.5001C80.6563 9.61924 80.783 9.74588 80.783 9.90211V15.4125C80.783 15.5687 80.9096 15.6954 81.0658 15.6954H81.0771C81.2334 15.6954 81.36 15.822 81.36 15.9782V27.6666C81.36 27.8228 81.2334 27.9494 81.0771 27.9494H76.9585Z" fill="#030303"/>
<path d="M109.706 27.9494C109.55 27.9494 109.424 27.8228 109.424 27.6666V19.2935C109.424 18.8749 109.401 18.3431 109.356 17.6981C109.31 17.0418 109.169 16.3856 108.931 15.7293C108.694 15.073 108.303 14.5243 107.76 14.083C107.229 13.6417 106.47 13.4211 105.486 13.4211C105.09 13.4211 104.666 13.4833 104.213 13.6078C103.76 13.7322 103.336 13.9755 102.94 14.3376C102.544 14.6883 102.216 15.2088 101.956 15.899C101.74 16.4967 101.618 17.2641 101.589 18.2012C101.583 18.4088 101.366 18.5459 101.178 18.4569L99.0963 17.4693C98.9976 17.4224 98.9343 17.3229 98.9362 17.2136C98.9595 15.8323 99.2532 14.5342 99.8172 13.3192C100.406 12.0519 101.288 11.0279 102.465 10.2472C103.653 9.46648 105.147 9.07612 106.946 9.07612C108.383 9.07612 109.554 9.31939 110.459 9.80593C111.364 10.2925 112.066 10.9091 112.563 11.6559C113.073 12.4027 113.435 13.1834 113.65 13.9981C113.865 14.8015 113.995 15.5369 114.04 16.2045C114.085 16.8721 114.108 17.3587 114.108 17.6642V27.6666C114.108 27.8228 113.981 27.9494 113.825 27.9494H109.706ZM97.1809 27.9494C97.0246 27.9494 96.898 27.8228 96.898 27.6666V9.90211C96.898 9.74588 97.0246 9.61924 97.1809 9.61924H100.722C100.879 9.61924 101.005 9.74588 101.005 9.90211V15.4125C101.005 15.5687 101.132 15.6954 101.288 15.6954H101.299C101.456 15.6954 101.582 15.822 101.582 15.9782V27.6666C101.582 27.8228 101.456 27.9494 101.299 27.9494H97.1809Z" fill="#030303"/>
<path d="M125.674 28.4586C123.796 28.4586 122.138 28.0569 120.701 27.2536C119.276 26.4389 118.156 25.3244 117.341 23.91C116.538 22.4843 116.136 20.855 116.136 19.0219C116.136 17.0192 116.532 15.2767 117.324 13.7944C118.116 12.3122 119.208 11.1637 120.6 10.349C121.991 9.52306 123.592 9.11006 125.403 9.11006C127.326 9.11006 128.961 9.56266 130.308 10.4679C131.654 11.3731 132.65 12.646 133.295 14.2866C133.915 15.8632 134.148 17.7061 133.995 19.8155C133.984 19.9619 133.861 20.0742 133.715 20.0742H129.691C129.535 20.0742 129.408 19.9476 129.408 19.7914V18.377C129.408 16.51 129.108 15.1692 128.509 14.3545C127.92 13.5285 126.953 13.1156 125.607 13.1156C124.034 13.1156 122.874 13.5964 122.127 14.5582C121.392 15.5087 121.024 16.9174 121.024 18.7843C121.024 20.4929 121.392 21.8167 122.127 22.7559C122.874 23.6837 123.966 24.1476 125.403 24.1476C126.308 24.1476 127.083 23.9496 127.728 23.5536C128.308 23.1973 128.765 22.699 129.098 22.0588C129.163 21.9344 129.304 21.868 129.439 21.9066L133.517 23.076C133.679 23.1225 133.765 23.3 133.696 23.4537C133.002 24.989 131.952 26.1934 130.545 27.0669C129.063 27.9947 127.44 28.4586 125.674 28.4586ZM119.881 20.0742C119.725 20.0742 119.598 19.9476 119.598 19.7914V16.9287C119.598 16.7725 119.725 16.6458 119.881 16.6458H131.468C131.624 16.6458 131.751 16.7725 131.751 16.9287V19.7914C131.751 19.9476 131.624 20.0742 131.468 20.0742H119.881Z" fill="#030303"/>
<path d="M136.392 27.9494C136.236 27.9494 136.109 27.8228 136.109 27.6666V3.28287C136.109 3.12665 136.236 3 136.392 3H140.443C140.599 3 140.725 3.12665 140.725 3.28287V27.6666C140.725 27.8228 140.599 27.9494 140.443 27.9494H136.392Z" fill="#030303"/>
<g style="mix-blend-mode:multiply">
<rect x="19.5108" y="-11.1422" width="142.647" height="53.5495" fill="#030303"/>
</g>
</g>
</g>
<defs>
<clipPath id="clip0_562_98482">
<rect width="140.363" height="32" fill="white"/>
</clipPath>
<clipPath id="clip1_562_98482">
<rect width="26.3627" height="32" fill="white"/>
</clipPath>
</defs>
</svg>
