<svg width="27" height="32" viewBox="0 0 27 32" fill="none" xmlns="http://www.w3.org/2000/svg">
<path d="M26.3627 17.235V31.9876C26.2671 31.9904 26.1724 31.9952 26.0768 31.9952C20.6298 31.9952 15.1819 31.9943 9.73493 32C9.49108 32 9.31991 31.9197 9.15064 31.7495C6.20148 28.7936 3.24944 25.8406 0.291665 22.8933C0.0898903 22.6935 0 22.4936 0 22.2058C0.00860652 17.6242 0.00573768 13.0417 0.00669396 8.45925C0.00669396 8.18098 0.00286884 7.90079 0.0277321 7.62442C0.349042 4.16938 2.89753 1.16475 6.25025 0.275409C6.74369 0.144398 7.24573 0.0726773 7.74874 0C8.24218 0 8.73466 0 9.2281 0C9.29026 0.0133879 9.35146 0.0315572 9.41362 0.0392075C11.3931 0.262021 13.0934 1.07868 14.4876 2.49302C15.8054 3.8299 17.1451 5.14383 18.4686 6.47402C20.2578 8.27182 22.0652 10.0524 23.8554 11.8502C24.9436 12.9433 25.6924 14.2381 26.0883 15.7346C26.2193 16.229 26.2642 16.7359 26.3618 17.2341L26.3627 17.235ZM8.48412 21.6224C10.8538 21.6224 13.2234 21.6224 15.5931 21.6224C15.8602 21.6224 15.9941 21.4914 15.9947 21.2294C15.9947 18.9783 16.0033 16.7273 15.9928 14.4762C15.9823 12.3293 16.0445 10.1815 15.9565 8.03467C15.8819 6.20913 15.202 4.62457 13.9617 3.30108C11.5519 0.730598 7.77456 0.14918 4.74315 1.92117C2.34575 3.32212 1.02704 5.4594 0.988794 8.246C0.929504 12.5722 0.971581 16.9003 0.970624 21.2275C0.970624 21.6205 0.973493 21.6224 1.37417 21.6224C3.74384 21.6224 6.1135 21.6224 8.48316 21.6224H8.48412Z" fill="#14FDA8"/>
</svg>
