<svg xmlns="http://www.w3.org/2000/svg" width="25.575" height="22.364" viewBox="0 0 25.575 22.364">
  <g id="King" transform="translate(-2.492 -3.223)">
    <path id="Path_46715" data-name="Path 46715" d="M25.8,5.778l-5.11,4.14c-.243-.271-3.492-3.925-4.835-5.436a.771.771,0,0,0-1.152,0c-1.345,1.512-4.592,5.165-4.835,5.436l-5.11-4.14a.771.771,0,0,0-1.245.732c.323,1.84,1.017,6.567,1.473,9.717a3.524,3.524,0,0,0,3.492,3.019h13.6a3.524,3.524,0,0,0,3.492-3.019c.456-3.149,1.15-7.876,1.473-9.717A.771.771,0,0,0,25.8,5.778Z" transform="translate(0)" fill="none" stroke="#000" stroke-linecap="round" stroke-linejoin="round" stroke-width="2" fill-rule="evenodd"/>
    <path id="Path_46716" data-name="Path 46716" d="M5.834,19.781H23.282" transform="translate(0.721 4.806)" fill="none" stroke="#9381ff" stroke-linecap="round" stroke-linejoin="round" stroke-width="2"/>
  </g>
</svg>
