<svg xmlns="http://www.w3.org/2000/svg" width="25.161" height="27.22" viewBox="0 0 25.161 27.22">
  <g id="Delete" transform="translate(1 1)">
    <path id="Path_46835" data-name="Path 46835" d="M24.967,9.547l-.858,11.737a4.647,4.647,0,0,1-4.635,4.309h-8.4a4.649,4.649,0,0,1-4.635-4.31L5.585,9.547" transform="translate(-3.694 -0.373)" fill="none" stroke="#9381ff" stroke-linecap="round" stroke-linejoin="round" stroke-width="2"/>
    <path id="Path_46836" data-name="Path 46836" d="M15.945,12.105,10.59,17.46m0-5.355,5.355,5.355" transform="translate(-1.686 0.653)" fill="none" stroke="#000" stroke-linecap="round" stroke-linejoin="round" stroke-width="2"/>
    <path id="Path_46837" data-name="Path 46837" d="M27.4,6.4H4.235" transform="translate(-4.235 -1.635)" fill="none" stroke="#000" stroke-linecap="round" stroke-linejoin="round" stroke-width="2"/>
    <path id="Path_46838" data-name="Path 46838" d="M19.3,7.766l-.7-3.469A1.749,1.749,0,0,0,16.9,3H11.13a1.75,1.75,0,0,0-1.7,1.3l-.7,3.469" transform="translate(-2.43 -3)" fill="none" stroke="#000" stroke-linecap="round" stroke-linejoin="round" stroke-width="2"/>
  </g>
</svg>
