<svg xmlns="http://www.w3.org/2000/svg" width="27.36" height="27.344" viewBox="0 0 27.36 27.344">
  <g id="Dash_down" data-name="Dash down" transform="translate(1.139 1.142)">
    <path id="Path_46827" data-name="Path 46827" d="M8.883,20.4H8.9a11.864,11.864,0,0,0,2.738.761" transform="translate(-1.108 3.898)" fill="none" stroke="#000" stroke-linecap="round" stroke-linejoin="round" stroke-width="2"/>
    <path id="Path_46828" data-name="Path 46828" d="M6.916,19.389a11.5,11.5,0,0,1-1.657-1.67" transform="translate(-2.561 2.823)" fill="none" stroke="#000" stroke-linecap="round" stroke-linejoin="round" stroke-width="2"/>
    <path id="Path_46829" data-name="Path 46829" d="M4.015,15.968a12.271,12.271,0,0,1-.681-2.539" transform="translate(-3.334 1.102)" fill="none" stroke="#000" stroke-linecap="round" stroke-linejoin="round" stroke-width="2"/>
    <path id="Path_46830" data-name="Path 46830" d="M4.1,8.605a11.792,11.792,0,0,0-.761,2.751" transform="translate(-3.334 -0.833)" fill="none" stroke="#000" stroke-linecap="round" stroke-linejoin="round" stroke-width="2"/>
    <path id="Path_46831" data-name="Path 46831" d="M7.039,4.973A13.154,13.154,0,0,0,5.355,6.629" transform="translate(-2.523 -2.291)" fill="none" stroke="#000" stroke-linecap="round" stroke-linejoin="round" stroke-width="2"/>
    <path id="Path_46832" data-name="Path 46832" d="M11.574,3.059a11.972,11.972,0,0,0-2.539.681" transform="translate(-1.047 -3.059)" fill="none" stroke="#000" stroke-linecap="round" stroke-linejoin="round" stroke-width="2"/>
    <path id="Path_46833" data-name="Path 46833" d="M13.707,3.059a11.946,11.946,0,0,1,2.739.761,12.151,12.151,0,0,1,3.433,2.071,11.672,11.672,0,0,1,1.67,1.682,12.433,12.433,0,0,1,2,3.46,11.8,11.8,0,0,1,.681,2.552,12.645,12.645,0,0,1,0,4.007,11.648,11.648,0,0,1-.761,2.725v.014A12.059,12.059,0,0,1,21.4,23.751a11.077,11.077,0,0,1-1.682,1.67,12.551,12.551,0,0,1-3.473,2.017,12.742,12.742,0,0,1-2.539.681" transform="translate(0.827 -3.059)" fill="none" stroke="#9381ff" stroke-linecap="round" stroke-linejoin="round" stroke-width="2"/>
    <path id="Path_46834" data-name="Path 46834" d="M13.416,18.251V8.531m0,9.72,3.792-3.805m-3.792,3.805L9.627,14.446" transform="translate(-0.809 -0.863)" fill="none" stroke="#000" stroke-linecap="round" stroke-linejoin="round" stroke-width="2"/>
  </g>
</svg>
