<svg xmlns="http://www.w3.org/2000/svg" width="148.546" height="41" viewBox="0 0 148.546 41">
  <g id="logo_color" data-name="logo color" transform="translate(-25.454 -1018)">
    <text id="Powered_by" data-name="Powered by" transform="translate(77 1029)" fill="#9381ff" font-size="12" font-family="sans-serif, Ubuntu, Ubuntu-Medium" font-weight="700" letter-spacing="-0.05em"><tspan x="0" y="0">Powered by</tspan></text>
    <g id="Group_7101" data-name="Group 7101" transform="translate(25.454 1018)">
      <g id="Group_7098" data-name="Group 7098" transform="translate(0 0)">
        <path id="Path_46768" data-name="Path 46768" d="M34.345,22.895v3.281a8.275,8.275,0,0,1-8.251,8.251H14.932a8.275,8.275,0,0,1-8.251-8.251V15.013a8.275,8.275,0,0,1,8.251-8.251H26.094a8.257,8.257,0,0,1,1.45.136L32.768,1.52A13.877,13.877,0,0,0,26.82.171H14.028A14.068,14.068,0,0,0,0,14.2V26.991A14.069,14.069,0,0,0,14.028,41.018H26.82A14.069,14.069,0,0,0,40.847,26.991V16.661Z" transform="translate(0 -0.018)" fill="#9481ff"/>
        <path id="Path_46769" data-name="Path 46769" d="M22.7,27.473a3.455,3.455,0,0,1-2.465-1.03l-6.508-6.583a3.466,3.466,0,1,1,4.93-4.872l4.077,4.126L41.15.994a3.466,3.466,0,0,1,4.861,4.941L25.125,26.477a3.454,3.454,0,0,1-2.43,1" transform="translate(-1.357 0)" fill="#594da4"/>
      </g>
    </g>
    <g id="Group_7102" data-name="Group 7102" transform="translate(-706.966 313.684)">
      <path id="Path_46770" data-name="Path 46770" d="M63.621,2.34h5.727V8.519h3.494v4.368H69.348v5.274c0,1.553.388,2.3,1.294,2.3a2.7,2.7,0,0,0,1.423-.518l1.424,4.626A9.479,9.479,0,0,1,69.283,25.6c-4.562,0-5.662-3.4-5.662-6.341V12.887H61.227V8.519h2.394Z" transform="translate(723 716.99)" fill="#594da4"/>
      <path id="Path_46771" data-name="Path 46771" d="M93.5,12.093c5.5,0,9.9,3.623,9.9,8.8,0,5.111-4.173,8.767-9.9,8.767-5.985,0-10-3.656-10-8.767,0-5.177,4.4-8.8,10-8.8M93.47,24.775a3.73,3.73,0,0,0,3.85-3.882,3.866,3.866,0,1,0-7.732,0,3.7,3.7,0,0,0,3.882,3.882" transform="translate(713.729 712.931)" fill="#594da4"/>
      <path id="Path_46772" data-name="Path 46772" d="M130.133,12.093c5.5,0,9.9,3.623,9.9,8.8,0,5.111-4.173,8.767-9.9,8.767-5.985,0-10-3.656-10-8.767,0-5.177,4.4-8.8,10-8.8M130.1,24.775a3.73,3.73,0,0,0,3.85-3.882,3.866,3.866,0,1,0-7.732,0,3.7,3.7,0,0,0,3.882,3.882" transform="translate(698.484 712.931)" fill="#594da4"/>
      <path id="Path_46773" data-name="Path 46773" d="M165.016,8.024a7.548,7.548,0,0,1,5.435,2.07V2.316h5.727v22.79h-5.663V23.229h-.065a7.348,7.348,0,0,1-5.435,2.362c-4.853,0-8.25-3.915-8.25-8.767s3.4-8.8,8.25-8.8m1.715,12.682a3.73,3.73,0,0,0,3.85-3.882,3.866,3.866,0,1,0-7.732,0,3.7,3.7,0,0,0,3.882,3.882" transform="translate(683.24 717)" fill="#594da4"/>
      <path id="Path_46774" data-name="Path 46774" d="M201.839,20.818c0,3.268.873,4.529,3.268,4.529s3.268-1.262,3.268-4.529V12.924H214.1v9.285c0,5.565-2.783,7.8-8.995,7.8s-8.994-2.233-8.994-7.8V12.924h5.726Z" transform="translate(666.865 712.585)" fill="#594da4"/>
    </g>
  </g>
</svg>
