<svg xmlns="http://www.w3.org/2000/svg" width="20.034" height="18.451" viewBox="0 0 20.034 18.451">
  <g id="Store" transform="translate(-2.483 -2.711)">
    <path id="Path_46673" data-name="Path 46673" d="M9.034,10.295,9.94,3.84" fill="none" stroke="#9381ff" stroke-linecap="round" stroke-linejoin="round" stroke-width="2"/>
    <path id="Path_46674" data-name="Path 46674" d="M16.062,10.295,15.156,3.84" fill="none" stroke="#9381ff" stroke-linecap="round" stroke-linejoin="round" stroke-width="2"/>
    <path id="Path_46676" data-name="Path 46676" d="M10.037,20.159V16.677a2.463,2.463,0,0,1,4.926,0v3.481" fill="none" stroke="#9381ff" stroke-linecap="round" stroke-linejoin="round" stroke-width="2"/>
    <path id="Path_46672" data-name="Path 46672" d="M6.286,3.84H18.714a1.891,1.891,0,0,1,1.766,1.24l.894,2.6a1.922,1.922,0,0,1-1.766,2.613H5.392A1.922,1.922,0,0,1,3.626,7.681l.893-2.6A1.893,1.893,0,0,1,6.286,3.84Z" fill="none" stroke="#000" stroke-linecap="round" stroke-linejoin="round" stroke-width="2"/>
    <path id="Path_46675" data-name="Path 46675" d="M5.29,10.3v7.248a2.623,2.623,0,0,0,2.636,2.611h9.147a2.623,2.623,0,0,0,2.638-2.608V10.3" fill="none" stroke="#000" stroke-linecap="round" stroke-linejoin="round" stroke-width="2"/>
  </g>
</svg>
