<svg xmlns="http://www.w3.org/2000/svg" width="25.56" height="25.56" viewBox="0 0 25.56 25.56">
  <g id="Board_tasks" data-name="Board tasks" transform="translate(-2.5 -2)">
    <path id="Path_46632" data-name="Path 46632" d="M9.759,3H20.8c3.859,0,6.261,2.724,6.261,6.579v10.4c0,3.855-2.4,6.579-6.262,6.579H9.759C5.9,26.56,3.5,23.836,3.5,19.981V9.579C3.5,5.724,5.912,3,9.759,3Z" transform="translate(0 0)" fill="none" stroke="#000" stroke-linecap="round" stroke-linejoin="round" stroke-width="2"/>
    <path id="Path_46633" data-name="Path 46633" d="M13.207,15.3h5.642" transform="translate(2.998 3.801)" fill="none" stroke="#000" stroke-linecap="round" stroke-linejoin="round" stroke-width="2"/>
    <path id="Path_46634" data-name="Path 46634" d="M7.967,14.84l1.077,1.077,2.1-2.1" transform="translate(1.38 3.342)" fill="none" stroke="#9381ff" stroke-linecap="round" stroke-linejoin="round" stroke-width="2"/>
    <path id="Path_46635" data-name="Path 46635" d="M7.967,9.6l1.077,1.077,2.1-2.1" transform="translate(1.38 1.723)" fill="none" stroke="#9381ff" stroke-linecap="round" stroke-linejoin="round" stroke-width="2"/>
    <path id="Path_46636" data-name="Path 46636" d="M13.207,10.066h5.642" transform="translate(2.998 2.183)" fill="none" stroke="#000" stroke-linecap="round" stroke-linejoin="round" stroke-width="2"/>
  </g>
</svg>
